<svg xmlns="http://www.w3.org/2000/svg" viewBox="0 0 720 420" width="720" height="420" fill="none">
  <rect width="720" height="420" rx="34" fill="#fff"/>
  <g stroke="#111827" stroke-width="10" stroke-linecap="round" stroke-linejoin="round">
    <path d="M85 322H635" opacity=".22"/>
    <circle cx="360" cy="200" r="118"/>
    <path d="M242 200h236M360 82c38 36 58 76 58 118s-20 82-58 118M360 82c-38 36-58 76-58 118s20 82 58 118"/>
    <path d="M270 125c55 24 125 24 180 0M270 275c55-24 125-24 180 0" opacity=".45"/>
    <path d="M580 118l40-40M620 78l20 64"/>
  </g>
</svg>
