<svg xmlns="http://www.w3.org/2000/svg" width="900" height="620" viewBox="0 0 720 430">
<defs>
<linearGradient id="g" x1="0" y1="0" x2="1" y2="1">
<stop offset="0" stop-color="#2563eb"/><stop offset="1" stop-color="#0f766e"/>
</linearGradient>
<filter id="s"><feDropShadow dx="0" dy="14" stdDeviation="14" flood-color="#0f172a" flood-opacity=".24"/></filter>
</defs>
<rect width="720" height="430" fill="url(#g)"/>
<circle cx="105" cy="90" r="56" fill="#fff7ed" opacity=".45"/>
<circle cx="610" cy="72" r="35" fill="#fff" opacity=".2"/>
<g filter="url(#s)">
<rect x="150" y="235" width="420" height="35" fill="#fde68a"/>
<path d="M170 270 Q220 190 270 270" fill="none" stroke="#fef3c7" stroke-width="20"/>
<path d="M280 270 Q330 190 380 270" fill="none" stroke="#fef3c7" stroke-width="20"/>
<path d="M390 270 Q440 190 490 270" fill="none" stroke="#fef3c7" stroke-width="20"/>
<path d="M0 320 C160 280 270 355 420 320 C530 298 620 330 720 305 L720 430 L0 430 Z" fill="#60a5fa" opacity=".72"/>
</g>
<rect y="318" width="720" height="112" fill="rgba(15,23,42,.34)"/>
<text x="360" y="365" text-anchor="middle" font-family="Tahoma,Arial" font-size="34" font-weight="900" fill="#ffffff">Isfahan</text>
<text x="360" y="398" text-anchor="middle" font-family="Tahoma,Arial" font-size="18" font-weight="700" fill="#e0f2fe">Si-o-se-pol Bridge</text>
</svg>