<svg xmlns="http://www.w3.org/2000/svg" width="900" height="620" viewBox="0 0 720 430">
<defs>
<linearGradient id="g" x1="0" y1="0" x2="1" y2="1">
<stop offset="0" stop-color="#67e8f9"/><stop offset="1" stop-color="#0891b2"/>
</linearGradient>
<filter id="s"><feDropShadow dx="0" dy="14" stdDeviation="14" flood-color="#0f172a" flood-opacity=".24"/></filter>
</defs>
<rect width="720" height="430" fill="url(#g)"/>
<circle cx="105" cy="90" r="56" fill="#fff7ed" opacity=".45"/>
<circle cx="610" cy="72" r="35" fill="#fff" opacity=".2"/>
<g filter="url(#s)">
<path d="M0 310 C140 260 240 360 380 310 C500 270 620 320 720 290 L720 430 L0 430 Z" fill="#fcd34d"/>
<path d="M0 250 C120 220 220 275 360 240 C500 205 610 245 720 220 L720 430 L0 430 Z" fill="#60a5fa" opacity=".9"/>
<path d="M480 245 C520 190 570 190 605 245" fill="none" stroke="#064e3b" stroke-width="16" stroke-linecap="round"/>
<line x1="545" y1="245" x2="510" y2="350" stroke="#7c2d12" stroke-width="14" stroke-linecap="round"/>
</g>
<rect y="318" width="720" height="112" fill="rgba(15,23,42,.34)"/>
<text x="360" y="365" text-anchor="middle" font-family="Tahoma,Arial" font-size="34" font-weight="900" fill="#ffffff">Kish Island</text>
<text x="360" y="398" text-anchor="middle" font-family="Tahoma,Arial" font-size="18" font-weight="700" fill="#e0f2fe">Persian Gulf</text>
</svg>