<svg xmlns="http://www.w3.org/2000/svg" viewBox="0 0 1800 1080" fill="none">
  <defs>
    <linearGradient id="horizon" x1="0" y1="0" x2="1800" y2="0" gradientUnits="userSpaceOnUse">
      <stop stop-color="#4A9FD8" stop-opacity="0"/>
      <stop offset="0.18" stop-color="#4A9FD8" stop-opacity="0.46"/>
      <stop offset="0.82" stop-color="#4A9FD8" stop-opacity="0.46"/>
      <stop offset="1" stop-color="#4A9FD8" stop-opacity="0"/>
    </linearGradient>
    <linearGradient id="goldLine" x1="180" y1="240" x2="1610" y2="860" gradientUnits="userSpaceOnUse">
      <stop stop-color="#E8A838" stop-opacity="0.18"/>
      <stop offset="0.48" stop-color="#E8A838" stop-opacity="0.58"/>
      <stop offset="1" stop-color="#E8A838" stop-opacity="0.16"/>
    </linearGradient>
    <filter id="soft" x="-20%" y="-20%" width="140%" height="140%">
      <feGaussianBlur stdDeviation="0.35"/>
    </filter>
  </defs>

  <!-- soft geographic contour lines -->
  <g stroke="#4A9FD8" stroke-width="2" opacity="0.18">
    <path d="M-60 164C180 74 330 228 565 144C775 69 922 107 1112 188C1329 280 1534 144 1865 194"/>
    <path d="M-84 220C144 130 340 290 570 210C802 129 985 155 1170 242C1382 342 1582 202 1872 244"/>
    <path d="M-120 736C166 622 338 788 595 708C831 634 988 671 1192 756C1395 840 1604 715 1910 752"/>
    <path d="M-108 794C150 698 352 854 610 778C846 709 1024 741 1210 821C1410 906 1630 786 1900 818"/>
  </g>

  <!-- air routes -->
  <g stroke="url(#goldLine)" stroke-width="2.5" stroke-dasharray="10 14" opacity="0.8">
    <path d="M150 348C492 110 1008 112 1642 390"/>
    <path d="M210 890C582 622 1110 604 1590 842"/>
  </g>
  <g fill="#E8A838" opacity="0.5">
    <circle cx="150" cy="348" r="5"/><circle cx="1642" cy="390" r="5"/>
    <circle cx="210" cy="890" r="5"/><circle cx="1590" cy="842" r="5"/>
  </g>

  <!-- Eiffel Tower / France -->
  <g transform="translate(95 338)" stroke="#4A9FD8" stroke-width="4" stroke-linecap="round" stroke-linejoin="round" opacity="0.58">
    <path d="M82 0L62 74L43 153L13 246M82 0L102 74L121 153L151 246"/>
    <path d="M52 116H112M37 176H127M13 246H151"/>
    <path d="M62 74H102M51 128L113 128M31 202C60 184 104 184 133 202"/>
    <path d="M82 0V-20"/>
  </g>

  <!-- Big Ben / United Kingdom -->
  <g transform="translate(315 418)" stroke="#4A9FD8" stroke-width="4" stroke-linecap="round" stroke-linejoin="round" opacity="0.46">
    <path d="M35 0H91L99 24H27L35 0Z"/>
    <path d="M35 24H91V236H35V24Z"/>
    <path d="M44 62H82V112H44V62Z"/>
    <circle cx="63" cy="87" r="15"/>
    <path d="M63 72V87L73 94M27 236H99M44 132H82M44 160H82M44 188H82"/>
    <path d="M53 -20H73L63 -43L53 -20Z"/>
  </g>

  <!-- Istanbul mosque / Türkiye -->
  <g transform="translate(530 526)" stroke="#E8A838" stroke-width="4" stroke-linecap="round" stroke-linejoin="round" opacity="0.52">
    <path d="M26 188V90M208 188V90"/>
    <path d="M17 90H35L26 62L17 90ZM199 90H217L208 62L199 90Z"/>
    <path d="M42 188V135C42 91 76 57 117 57C158 57 192 91 192 135V188"/>
    <path d="M67 91C79 54 98 38 117 38C136 38 155 54 167 91"/>
    <path d="M117 38V10M109 10H125L117 -5L109 10Z"/>
    <path d="M0 188H234M78 188V151C78 128 95 111 117 111C139 111 156 128 156 151V188"/>
  </g>

  <!-- Burj Khalifa / UAE -->
  <g transform="translate(858 250)" stroke="#4A9FD8" stroke-width="4" stroke-linecap="round" stroke-linejoin="round" opacity="0.55">
    <path d="M86 0V322M86 24L64 73V322M86 67L112 119V322M64 101L46 144V322M112 150L130 191V322"/>
    <path d="M26 322H150M46 144H64M64 73H86M86 119H112M112 191H130"/>
    <path d="M78 -35H94L86 0L78 -35Z"/>
  </g>

  <!-- Petronas Towers / Malaysia -->
  <g transform="translate(1120 396)" stroke="#4A9FD8" stroke-width="4" stroke-linecap="round" stroke-linejoin="round" opacity="0.48">
    <path d="M34 38H100V250H34V38ZM160 38H226V250H160V38Z"/>
    <path d="M48 38L67 0L86 38M174 38L193 0L212 38"/>
    <path d="M67 0V-25M193 0V-25"/>
    <path d="M100 120H160V152H100V120Z"/>
    <path d="M48 72H86M48 104H86M48 168H86M48 202H86M174 72H212M174 104H212M174 168H212M174 202H212"/>
    <path d="M20 250H240"/>
  </g>

  <!-- Tokyo tower / Japan -->
  <g transform="translate(1435 430)" stroke="#E8A838" stroke-width="4" stroke-linecap="round" stroke-linejoin="round" opacity="0.48">
    <path d="M72 0L54 74L36 138L6 246M72 0L90 74L108 138L138 246"/>
    <path d="M45 104H99M31 160H113M6 246H138"/>
    <path d="M36 138C58 124 86 124 108 138"/>
    <path d="M72 0V-31M60 -31H84"/>
  </g>

  <!-- Colosseum / Italy -->
  <g transform="translate(120 820)" stroke="#4A9FD8" stroke-width="4" stroke-linecap="round" stroke-linejoin="round" opacity="0.5">
    <path d="M0 118C8 50 61 12 142 12C223 12 276 50 284 118V174H0V118Z"/>
    <path d="M0 110H284M12 144H272M24 174V112M260 174V112"/>
    <path d="M44 108V78C44 58 59 44 78 44C97 44 112 58 112 78V108M122 108V74C122 53 138 38 158 38C178 38 194 53 194 74V108M202 108V78C202 58 217 44 236 44C255 44 270 58 270 78V108"/>
    <path d="M40 174V144C40 126 54 113 72 113C90 113 104 126 104 144V174M126 174V140C126 121 141 107 160 107C179 107 194 121 194 140V174M214 174V144C214 126 228 113 246 113C264 113 278 126 278 144V174"/>
  </g>

  <!-- Arc / India-inspired landmark -->
  <g transform="translate(560 836)" stroke="#4A9FD8" stroke-width="4" stroke-linecap="round" stroke-linejoin="round" opacity="0.42">
    <path d="M20 180V58H162V180"/>
    <path d="M45 180V115C45 85 65 64 91 64C117 64 137 85 137 115V180"/>
    <path d="M8 58H174L150 29H32L8 58Z"/>
    <path d="M72 29L91 0L110 29M0 180H182"/>
  </g>

  <!-- Azadi Tower / Iran -->
  <g transform="translate(880 800)" stroke="#E8A838" stroke-width="4" stroke-linecap="round" stroke-linejoin="round" opacity="0.5">
    <path d="M16 208C62 155 71 98 74 24H126C129 98 138 155 184 208"/>
    <path d="M36 208C66 169 80 137 100 137C120 137 134 169 164 208"/>
    <path d="M63 92H137M53 133H147M0 208H200"/>
    <path d="M74 24L100 0L126 24"/>
  </g>

  <!-- Sydney Opera House / Australia -->
  <g transform="translate(1210 840)" stroke="#4A9FD8" stroke-width="4" stroke-linecap="round" stroke-linejoin="round" opacity="0.46">
    <path d="M0 176H270"/>
    <path d="M20 176C45 112 75 66 131 12C117 84 123 128 150 176"/>
    <path d="M91 176C116 106 158 61 212 34C184 95 187 137 214 176"/>
    <path d="M170 176C191 124 220 93 252 73C237 118 239 147 258 176"/>
  </g>

  <!-- clean baseline -->
  <path d="M48 1016H1752" stroke="url(#horizon)" stroke-width="3"/>

  <!-- small plane glyphs -->
  <g fill="#E8A838" opacity="0.48" filter="url(#soft)">
    <path d="M650 200L672 210L696 193L703 198L683 217L702 230L696 235L674 224L662 242L655 239L661 219L642 208L650 200Z"/>
    <path d="M1450 748L1472 758L1496 741L1503 746L1483 765L1502 778L1496 783L1474 772L1462 790L1455 787L1461 767L1442 756L1450 748Z"/>
  </g>
</svg>
