<svg xmlns="http://www.w3.org/2000/svg" width="1280" height="980" viewBox="0 0 1280 980" fill="none">
  <defs>
    <style>
      .line{fill:none;stroke-linecap:round;stroke-linejoin:round;vector-effect:non-scaling-stroke}
      .dark{stroke:#111827}.purple{stroke:#6d28d9}.teal{stroke:#0f766e}.amber{stroke:#b45309}.soft{stroke:#334155}
    </style>

    <g id="eiffel" class="line">
      <path d="M22 150 L76 16 L130 150"/>
      <path d="M48 75 H104"/><path d="M37 112 H115"/>
      <path d="M76 16 V3"/><path d="M46 150 C63 121 89 121 106 150"/>
      <path d="M55 150 L76 75 L97 150"/><path d="M63 48 H89"/>
    </g>
    <g id="burj" class="line">
      <path d="M64 172 V13"/><path d="M38 172 H90"/>
      <path d="M44 138 H84"/><path d="M50 104 H78"/><path d="M55 68 H73"/>
      <path d="M64 13 L56 51 H72 Z"/><path d="M48 172 V138"/><path d="M80 172 V138"/>
    </g>
    <g id="petronas" class="line">
      <path d="M36 150 V30 H70 V150"/><path d="M112 150 V30 H146 V150"/>
      <path d="M70 82 H112"/><path d="M42 48 H64"/><path d="M118 48 H140"/>
      <path d="M48 70 H62"/><path d="M124 70 H138"/><path d="M50 92 H60"/><path d="M126 92 H136"/>
      <path d="M53 30 V13"/><path d="M129 30 V13"/><path d="M24 150 H158"/>
    </g>
    <g id="colosseum" class="line">
      <path d="M16 118 C54 72 142 72 180 118"/>
      <path d="M30 118 V168 H166 V118"/>
      <path d="M52 168 V138 C52 126 68 126 68 138 V168"/>
      <path d="M92 168 V132 C92 119 110 119 110 132 V168"/>
      <path d="M134 168 V138 C134 126 150 126 150 138 V168"/>
      <path d="M47 109 H149"/><path d="M38 134 H160"/>
    </g>
    <g id="istanbul" class="line">
      <path d="M18 142 H184"/><path d="M38 142 V90 H164 V142"/>
      <path d="M56 90 C68 54 134 54 146 90"/>
      <path d="M70 142 V112"/><path d="M101 142 V102"/><path d="M132 142 V112"/>
      <path d="M30 142 V52"/><path d="M172 142 V52"/>
      <path d="M24 52 H36"/><path d="M166 52 H178"/><path d="M30 52 V35"/><path d="M172 52 V35"/>
    </g>
    <g id="persepolis" class="line">
      <path d="M12 150 H190"/><path d="M30 126 H172"/><path d="M42 126 V72"/><path d="M76 126 V72"/><path d="M110 126 V72"/><path d="M144 126 V72"/>
      <path d="M28 72 H174"/><path d="M46 56 H156"/><path d="M62 40 H140"/>
      <path d="M52 150 L62 126"/><path d="M154 150 L144 126"/>
    </g>
    <g id="thaiTemple" class="line">
      <path d="M16 150 H196"/><path d="M42 150 V94 H170 V150"/>
      <path d="M32 94 L106 34 L180 94"/><path d="M52 86 L106 48 L160 86"/>
      <path d="M106 34 V12"/><path d="M76 150 V112"/><path d="M106 150 V104"/><path d="M136 150 V112"/>
    </g>
    <g id="cascade" class="line">
      <path d="M18 156 H178"/><path d="M38 132 H158"/><path d="M54 108 H142"/><path d="M68 84 H128"/><path d="M82 60 H114"/>
      <path d="M98 60 V24"/><path d="M84 24 H112"/><path d="M58 156 L98 60 L138 156"/>
    </g>
    <g id="mountains" class="line">
      <path d="M12 146 L76 58 L112 104 L152 44 L224 146 Z"/>
      <path d="M76 58 L94 86 L111 83"/><path d="M152 44 L170 78 L186 75"/>
      <path d="M12 146 H232"/><path d="M44 160 C84 150 134 150 198 160"/>
    </g>
    <g id="palmIsland" class="line">
      <path d="M74 155 C63 114 67 64 90 22"/>
      <path d="M88 27 C51 20 28 37 18 68"/><path d="M90 25 C126 14 158 30 170 62"/>
      <path d="M90 27 C76 58 46 75 18 80"/><path d="M92 27 C118 58 144 74 178 82"/>
      <path d="M34 158 H156"/><path d="M52 172 C82 162 112 162 142 172"/>
    </g>
    <g id="bridge" class="line">
      <path d="M14 136 H216"/>
      <path d="M26 136 C52 93 92 93 118 136"/><path d="M118 136 C144 93 184 93 210 136"/>
      <path d="M46 136 V102"/><path d="M118 136 V93"/><path d="M190 136 V102"/>
      <path d="M28 162 C82 148 148 148 206 162"/>
    </g>
    <g id="planePath" class="line">
      <path d="M0 20 C72 -10 126 56 190 20" stroke-dasharray="8 15"/>
      <path d="M98 18 l24 -8 l-13 15 l29 6 l-33 4 l-14 18 l1 -22 l-32 -6 Z"/>
    </g>
    <g id="compass" class="line">
      <circle cx="58" cy="58" r="46"/>
      <path d="M58 18 V8M58 108 V98M18 58 H8M108 58 H98"/>
      <path d="M58 28 L72 62 L42 88 L54 54 Z"/>
      <path d="M58 28 L54 54"/>
    </g>
  </defs>

  <rect width="1280" height="980" fill="#fff"/>

  <g class="line soft" stroke-width="2.25" opacity="0.28">
    <path d="M46 98 C172 34 278 126 406 72 C540 16 650 132 786 74 C920 18 1036 110 1218 42" stroke-dasharray="10 17"/>
    <path d="M20 348 C168 284 286 390 432 326 C576 262 684 382 836 320 C986 258 1096 364 1260 290" stroke-dasharray="7 15"/>
    <path d="M34 626 C186 554 326 674 478 604 C632 530 752 668 912 594 C1052 528 1154 630 1264 576" stroke-dasharray="9 18"/>
    <path d="M74 862 C218 804 368 914 514 850 C666 784 794 912 954 846 C1082 792 1174 872 1252 830" stroke-dasharray="8 16"/>
  </g>

  <g stroke-width="3.05" opacity="0.86">
    <use href="#eiffel" class="dark" transform="translate(54 92) scale(.64) rotate(-2)" opacity=".96"/>
    <use href="#istanbul" class="purple" transform="translate(236 106) scale(.55) rotate(1)" opacity=".78"/>
    <use href="#burj" class="dark" transform="translate(460 68) scale(.62)" opacity=".94"/>
    <use href="#petronas" class="teal" transform="translate(622 92) scale(.58) rotate(-1)" opacity=".78"/>
    <use href="#colosseum" class="dark" transform="translate(842 96) scale(.58)" opacity=".90"/>
    <use href="#mountains" class="soft" transform="translate(1030 112) scale(.50) rotate(1)" opacity=".75"/>

    <use href="#thaiTemple" class="amber" transform="translate(58 302) scale(.58) rotate(1)" opacity=".78"/>
    <use href="#palmIsland" class="dark" transform="translate(292 298) scale(.62) rotate(-2)" opacity=".86"/>
    <use href="#bridge" class="purple" transform="translate(510 320) scale(.52)" opacity=".78"/>
    <use href="#compass" class="soft" transform="translate(758 302) scale(.64) rotate(10)" opacity=".66"/>
    <use href="#persepolis" class="dark" transform="translate(914 312) scale(.56) rotate(-1)" opacity=".92"/>
    <use href="#planePath" class="teal" transform="translate(1100 314) scale(.58) rotate(-6)" opacity=".68"/>

    <use href="#cascade" class="purple" transform="translate(48 552) scale(.66) rotate(-1)" opacity=".80"/>
    <use href="#mountains" class="dark" transform="translate(252 578) scale(.60)" opacity=".84"/>
    <use href="#colosseum" class="amber" transform="translate(510 552) scale(.58) rotate(1)" opacity=".76"/>
    <use href="#thaiTemple" class="dark" transform="translate(720 570) scale(.54) rotate(-1)" opacity=".88"/>
    <use href="#bridge" class="teal" transform="translate(936 594) scale(.54)" opacity=".76"/>
    <use href="#palmIsland" class="purple" transform="translate(1130 572) scale(.50) rotate(2)" opacity=".72"/>

    <use href="#burj" class="purple" transform="translate(126 758) scale(.50) rotate(-1)" opacity=".76"/>
    <use href="#istanbul" class="dark" transform="translate(310 762) scale(.50) rotate(1)" opacity=".88"/>
    <use href="#eiffel" class="teal" transform="translate(544 740) scale(.48) rotate(1)" opacity=".73"/>
    <use href="#persepolis" class="amber" transform="translate(722 760) scale(.48)" opacity=".70"/>
    <use href="#petronas" class="dark" transform="translate(918 746) scale(.50) rotate(-1)" opacity=".88"/>
    <use href="#compass" class="purple" transform="translate(1122 764) scale(.54) rotate(-12)" opacity=".62"/>
  </g>

  <g stroke-width="2.1" opacity="0.45">
    <circle class="line purple" cx="196" cy="245" r="12"/>
    <circle class="line teal" cx="1076" cy="202" r="16"/>
    <path class="line amber" d="M398 242 q20 -24 42 0 q-20 24 -42 0"/>
    <path class="line soft" d="M682 246 h54 m-27 -27 v54"/>
    <circle class="line dark" cx="244" cy="512" r="10"/>
    <path class="line purple" d="M1084 512 c20 -22 48 -22 68 0"/>
    <path class="line teal" d="M398 828 c26 -18 58 -18 84 0"/>
    <circle class="line amber" cx="646" cy="868" r="12"/>
  </g>
</svg>
