<svg xmlns="http://www.w3.org/2000/svg" viewBox="0 0 1600 900" width="1600" height="900">
    <defs>
      <linearGradient id="bg" x1="0" y1="0" x2="1" y2="1">
        <stop offset="0%" stop-color="#0ea5e9"/>
        <stop offset="55%" stop-color="#2dd4bf"/>
        <stop offset="100%" stop-color="#fef3c7"/>
      </linearGradient>
      <linearGradient id="glass" x1="0" y1="0" x2="1" y2="1">
        <stop offset="0%" stop-color="rgba(255,255,255,.26)"/>
        <stop offset="100%" stop-color="rgba(255,255,255,.08)"/>
      </linearGradient>
      <filter id="blur"><feGaussianBlur stdDeviation="70"/></filter>
      <filter id="shadow" x="-20%" y="-20%" width="140%" height="140%">
        <feDropShadow dx="0" dy="18" stdDeviation="24" flood-color="rgba(15,23,42,.25)"/>
      </filter>
    </defs>
    <rect width="1600" height="900" fill="url(#bg)"/>
    <circle cx="1290" cy="140" r="220" fill="#fb7185" opacity="0.18" filter="url(#blur)"/>
    <circle cx="250" cy="760" r="240" fill="#ffffff" opacity="0.12" filter="url(#blur)"/>
    <path d="M0 660C260 550 460 580 700 650c260 75 520 70 900-80V900H0Z" fill="#ffffff" opacity="0.2"/>
    <path d="M0 720C250 640 470 670 690 735c270 82 560 85 910-35V900H0Z" fill="#ffffff" opacity="0.14"/>
    <g transform="translate(50,-20)"><path d="M260 470h1100" stroke="rgba(255,255,255,.92)" stroke-width="12" opacity=".45"/>
        <path d="M350 430c120-130 240-170 360-120 90 36 190 30 300-10 90-33 180-30 300 20" fill="none" stroke="rgba(255,255,255,.92)" stroke-width="16" stroke-linecap="round" opacity=".65"/>
        <path d="M680 230c25-70 100-110 170-90-30 60-94 118-170 90Z" fill="#fb7185" opacity=".9"/>
        <path d="M680 230 635 430" stroke="rgba(255,255,255,.92)" stroke-width="18" stroke-linecap="round"/>
        <circle cx="1110" cy="150" r="55" fill="#fb7185" opacity=".85"/></g>
    <rect x="90" y="80" width="1420" height="740" rx="38" fill="rgba(255,255,255,.09)" stroke="rgba(255,255,255,.18)" filter="url(#shadow)"/>
    <rect x="1180" y="112" width="245" height="52" rx="26" fill="rgba(255,255,255,.18)" stroke="rgba(255,255,255,.24)"/>
    <text x="1303" y="146" fill="#ffffff" font-family="Vazirmatn, Arial" font-size="24" font-weight="700" text-anchor="middle">نمای بیشتر از سفر</text>
    <text x="132" y="180" fill="#ffffff" opacity=".92" font-family="Arial" font-size="26" font-weight="700">SAFARO</text>
    <text x="132" y="214" fill="#ffffff" opacity=".72" font-family="Arial" font-size="18">TRAVEL AGENCY</text>
    <text x="1448" y="278" fill="#ffffff" font-family="Vazirmatn, Arial" font-size="68" font-weight="900" text-anchor="end">تور تابستانی آنتالیا</text>
    <text x="1448" y="340" fill="#ffffff" font-family="Vazirmatn, Arial" font-size="28" font-weight="600" text-anchor="end" opacity=".92">آنتالیا</text>
    <text x="1448" y="388" fill="#ffffff" font-family="Arial" font-size="24" font-weight="600" text-anchor="end" opacity=".82">Antalya • Mediterranean Beach</text>
    <g transform="translate(1040 600)">
      <rect x="0" y="0" width="408" height="112" rx="28" fill="rgba(255,255,255,.12)" stroke="rgba(255,255,255,.18)"/>
      <text x="204" y="46" fill="#ffffff" font-family="Vazirmatn, Arial" font-size="22" font-weight="700" text-anchor="middle">رزرو سریع • قیمت شفاف • هتل متنوع</text>
      <text x="204" y="80" fill="#ffffff" font-family="Vazirmatn, Arial" font-size="18" font-weight="500" text-anchor="middle" opacity=".85">عکس این تور به صورت محلی داخل سایت قرار گرفته است</text>
    </g>
    </svg>