<svg xmlns="http://www.w3.org/2000/svg" viewBox="0 0 720 420" width="720" height="420" fill="none">
  <rect width="720" height="420" rx="34" fill="#fff"/>
  <g stroke="#111827" stroke-width="10" stroke-linecap="round" stroke-linejoin="round">
    <path d="M75 320H645" opacity=".22"/>
    <path d="M120 288c58-72 116-72 174 0s116 72 174 0 116-72 174 0" opacity=".35"/>
    <path d="M135 320V250h450v70"/>
    <path d="M165 250c18-55 62-88 117-88s99 33 117 88"/>
    <path d="M405 250c12-38 43-62 82-62s70 24 82 62"/>
    <path d="M190 320v-58M250 320v-58M310 320v-58M430 320v-58M490 320v-58M550 320v-58"/>
    <path d="M258 155l66-54 66 54" opacity=".45"/>
  </g>
</svg>
