<svg xmlns="http://www.w3.org/2000/svg" viewBox="0 0 720 420" width="720" height="420" fill="none">
  <rect width="720" height="420" rx="34" fill="#fff"/>
  <g stroke="#111827" stroke-width="10" stroke-linecap="round" stroke-linejoin="round">
    <path d="M85 323H635" opacity=".22"/>
    <path d="M235 323V120h90v203M395 323V120h90v203"/>
    <path d="M255 95h50M415 95h50"/>
    <path d="M280 95V60M440 95V60"/>
    <path d="M325 205h70M325 245h70"/>
    <path d="M250 160h60M250 205h60M250 250h60M410 160h60M410 205h60M410 250h60" opacity=".45"/>
    <path d="M165 323V210h65v113M490 323V230h70v93"/>
  </g>
</svg>
