<svg xmlns="http://www.w3.org/2000/svg" width="1800" height="1700" viewBox="0 0 1800 1700" fill="none">
  <rect width="1800" height="1700" fill="#fff"/>
  <g stroke="#111827" stroke-width="3" stroke-linecap="round" stroke-linejoin="round" opacity="0.20">
    <!-- soft travel routes -->
    <path d="M36 265 C230 160 375 338 540 232 C725 113 820 292 990 204 C1190 100 1374 240 1540 156 C1630 112 1718 120 1770 154" stroke-dasharray="12 18" opacity=".28"/>
    <path d="M62 1130 C235 1045 390 1188 558 1108 C710 1036 852 1160 1010 1088 C1196 1002 1354 1165 1530 1078 C1624 1032 1710 1048 1760 1092" stroke-dasharray="10 16" opacity=".22"/>

    <!-- top row: small varied landmarks -->
    <g transform="translate(95 260) scale(.82)" opacity=".62">
      <path d="M25 210 L100 28 L175 210"/>
      <path d="M63 102 H137"/><path d="M48 158 H152"/><path d="M100 28 V0"/>
      <path d="M54 210 C82 174 120 174 148 210"/>
    </g>
    <g transform="translate(350 190) scale(.78)" opacity=".44">
      <path d="M20 170 H182"/><path d="M48 170 V95 C68 52 134 52 154 95 V170"/>
      <path d="M74 170 V112"/><path d="M101 170 V94"/><path d="M128 170 V112"/>
      <path d="M58 94 C77 78 125 78 144 94"/>
    </g>
    <g transform="translate(640 210) scale(.84)" opacity=".52">
      <path d="M38 190 H198"/><path d="M64 190 V76"/><path d="M172 190 V76"/>
      <path d="M64 76 C90 35 146 35 172 76"/><path d="M83 116 H153"/><path d="M118 64 V18"/>
    </g>
    <g transform="translate(970 172) scale(.72)" opacity=".50">
      <path d="M30 214 H210"/><path d="M62 214 V112"/><path d="M178 214 V112"/>
      <path d="M62 112 C82 70 158 70 178 112"/><path d="M120 214 V82"/><path d="M120 82 L88 118 H152 Z"/>
    </g>
    <g transform="translate(1270 220) scale(.76)" opacity=".56">
      <path d="M42 205 H210"/><path d="M70 205 V130"/><path d="M182 205 V130"/>
      <path d="M70 130 C86 92 166 92 182 130"/><path d="M126 205 V82"/>
      <path d="M97 82 H155"/><path d="M106 54 H146"/><path d="M126 54 V22"/>
    </g>
    <g transform="translate(1570 190) scale(.66)" opacity=".50">
      <path d="M88 226 V16"/><path d="M54 226 H122"/><path d="M62 180 H114"/><path d="M70 132 H106"/><path d="M78 86 H98"/><path d="M88 16 L78 54 H98 Z"/>
    </g>

    <!-- middle row -->
    <g transform="translate(140 700) scale(.80)" opacity=".48">
      <path d="M20 170 C82 118 160 118 222 170"/><path d="M42 170 V236 H200 V170"/>
      <path d="M66 236 V194"/><path d="M121 236 V184"/><path d="M176 236 V194"/>
      <circle cx="121" cy="132" r="18"/>
    </g>
    <g transform="translate(425 640) scale(.78)" opacity=".54">
      <path d="M24 226 H220"/><path d="M50 226 V100 H194 V226"/>
      <path d="M50 100 C76 72 168 72 194 100"/><path d="M74 226 V138"/><path d="M122 226 V128"/><path d="M170 226 V138"/>
      <path d="M36 100 H208"/>
    </g>
    <g transform="translate(760 625) scale(.70)" opacity=".56">
      <path d="M34 240 H236"/><path d="M62 240 V154 H208 V240"/>
      <path d="M80 154 L135 82 L190 154"/><path d="M104 126 H166"/>
      <path d="M135 82 V42"/><path d="M116 42 H154"/><path d="M88 240 V188"/><path d="M135 240 V178"/><path d="M182 240 V188"/>
    </g>
    <g transform="translate(1088 650) scale(.75)" opacity=".46">
      <path d="M32 218 H245"/><path d="M58 218 C60 160 84 128 120 128 H157 C195 128 218 160 220 218"/>
      <path d="M75 174 H205"/><path d="M102 218 V176"/><path d="M138 218 V176"/><path d="M174 218 V176"/>
      <path d="M118 128 C116 96 136 82 157 128"/>
    </g>
    <g transform="translate(1435 645) scale(.76)" opacity=".52">
      <path d="M24 226 H220"/><path d="M46 226 V156 H198 V226"/><path d="M122 226 V112"/>
      <path d="M70 156 C82 115 162 115 174 156"/><path d="M90 112 C104 80 140 80 154 112"/>
      <path d="M78 226 V188"/><path d="M166 226 V188"/>
    </g>

    <!-- lower row -->
    <g transform="translate(70 1215) scale(.68)" opacity=".55">
      <path d="M20 238 H260"/><path d="M60 238 V170"/><path d="M220 238 V170"/>
      <path d="M60 170 C92 118 188 118 220 170"/><path d="M140 238 V82"/>
      <path d="M116 82 H164"/><path d="M124 50 H156"/><path d="M140 50 V16"/>
    </g>
    <g transform="translate(390 1220) scale(.70)" opacity=".44">
      <circle cx="126" cy="80" r="42"/><path d="M126 122 V222"/><path d="M72 222 H180"/><path d="M96 80 H156"/>
      <path d="M92 40 C110 24 142 24 160 40"/>
    </g>
    <g transform="translate(680 1225) scale(.75)" opacity=".50">
      <path d="M26 220 H252"/><path d="M54 220 V132 H224 V220"/>
      <path d="M54 132 C92 96 186 96 224 132"/><path d="M82 220 V165"/><path d="M139 220 V150"/><path d="M196 220 V165"/>
      <path d="M98 98 C108 64 170 64 180 98"/>
    </g>
    <g transform="translate(1010 1218) scale(.72)" opacity=".50">
      <path d="M28 232 H244"/><path d="M62 232 V128"/><path d="M210 232 V128"/>
      <path d="M62 128 L136 62 L210 128"/><path d="M88 128 H184"/><path d="M136 62 V22"/>
      <path d="M100 232 V170"/><path d="M172 232 V170"/>
    </g>
    <g transform="translate(1350 1220) scale(.74)" opacity=".48">
      <path d="M24 220 H260"/><path d="M60 220 V146 H224 V220"/>
      <path d="M60 146 C85 100 199 100 224 146"/>
      <path d="M92 220 V168"/><path d="M142 220 V154"/><path d="M192 220 V168"/>
      <path d="M112 102 C118 72 166 72 172 102"/>
    </g>

    <!-- mountains and city base lines -->
    <path d="M70 1540 L208 1390 L316 1510 L410 1425 L565 1540" opacity=".24"/>
    <path d="M610 1538 L740 1374 L848 1490 L946 1406 L1088 1538" opacity=".22"/>
    <path d="M1180 1542 L1288 1415 L1368 1502 L1460 1390 L1608 1542" opacity=".24"/>
    <path d="M0 1585 C190 1535 375 1580 530 1600 C706 1626 858 1544 1026 1578 C1230 1618 1362 1584 1518 1555 C1645 1530 1734 1552 1800 1580" opacity=".19"/>
  </g>

  <!-- tiny calm travel details -->
  <g stroke="#111827" stroke-width="2.6" stroke-linecap="round" stroke-linejoin="round" opacity="0.08">
    <path d="M305 505 l70 -26 l-22 68 l-18 -31 z"/>
    <path d="M1505 480 l72 -24 l-24 70 l-17 -31 z"/>
    <path d="M910 980 l78 -24 l-26 74 l-18 -34 z"/>
    <circle cx="250" cy="1020" r="5" fill="#111827" stroke="none"/>
    <circle cx="585" cy="430" r="4" fill="#111827" stroke="none"/>
    <circle cx="1175" cy="420" r="4" fill="#111827" stroke="none"/>
    <circle cx="1585" cy="955" r="5" fill="#111827" stroke="none"/>
    <circle cx="925" cy="1370" r="4" fill="#111827" stroke="none"/>
  </g>
</svg>
