<svg xmlns="http://www.w3.org/2000/svg" width="1800" height="1700" viewBox="0 0 1800 1700" fill="none">
  <rect width="1800" height="1700" fill="#fff"/>
  <g stroke="#111827" stroke-width="3.2" stroke-linecap="round" stroke-linejoin="round" opacity="0.22">
    <!-- very sparse side skyline: keeps the center mostly clean -->
    <path d="M18 1320 C160 1265 296 1276 430 1334 C535 1380 643 1382 750 1338" opacity="0.28"/>
    <path d="M1040 1330 C1152 1275 1284 1272 1390 1322 C1510 1378 1640 1380 1784 1322" opacity="0.28"/>

    <!-- left: Eiffel-like minimal silhouette -->
    <path d="M128 1188 L210 890 L292 1188"/>
    <path d="M170 1046 H250"/>
    <path d="M151 1126 H270"/>
    <path d="M210 890 V825"/>
    <path d="M187 975 H233" opacity="0.55"/>
    <path d="M156 1188 C179 1154 241 1154 266 1188"/>

    <!-- far right: Burj-like tower -->
    <path d="M1618 1200 V795"/>
    <path d="M1579 1200 H1660"/>
    <path d="M1592 1140 H1646"/>
    <path d="M1603 1055 H1634"/>
    <path d="M1610 960 H1626"/>
    <path d="M1618 795 L1608 845 H1628 Z" opacity="0.75"/>

    <!-- soft mountains at bottom -->
    <path d="M330 1435 L440 1300 L527 1400 L600 1328 L732 1435" opacity="0.36"/>
    <path d="M1160 1438 L1246 1332 L1322 1410 L1396 1306 L1510 1438" opacity="0.36"/>

    <!-- small isolated landmarks with lots of whitespace -->
    <g opacity="0.58">
      <path d="M790 1164 H950"/>
      <path d="M820 1164 V1076 L854 1040 L888 1076 V1164"/>
      <path d="M864 1164 V1102"/>
      <path d="M918 1164 V1098"/>
      <path d="M902 1082 C908 1052 930 1048 940 1077"/>
    </g>
    <g opacity="0.45">
      <path d="M1320 930 C1375 872 1455 872 1512 930"/>
      <path d="M1342 930 V1014 H1490 V930"/>
      <path d="M1365 1014 V965"/>
      <path d="M1416 1014 V955"/>
      <path d="M1465 1014 V965"/>
    </g>
    <g opacity="0.42">
      <circle cx="520" cy="980" r="42"/>
      <path d="M520 1022 V1115"/>
      <path d="M472 1115 H568"/>
      <path d="M492 980 H548"/>
    </g>
  </g>

  <!-- very faint decorative dots, intentionally sparse -->
  <g fill="#111827" opacity="0.075">
    <circle cx="360" cy="760" r="4"/>
    <circle cx="1510" cy="710" r="4"/>
    <circle cx="900" cy="1460" r="3"/>
    <circle cx="1260" cy="1160" r="3"/>
    <circle cx="615" cy="1285" r="3"/>
  </g>
</svg>
